<svg width="441" height="519" viewBox="0 0 441 519" fill="none" xmlns="http://www.w3.org/2000/svg">
<path d="M181.526 34.9191L205.71 1L372.398 119.845L348.214 153.764L181.526 34.9191Z" fill="#6083A4" stroke="#4A6685" stroke-linejoin="round"/>
<path fill-rule="evenodd" clip-rule="evenodd" d="M1.19662 289.228L372.982 119.558L167.482 407.786L1.19662 289.228ZM261.963 215.546L78.8784 299.099L160.765 357.482L261.963 215.546Z" fill="#6083A4"/>
<path d="M78.8784 299.099L261.963 215.546L160.765 357.482L78.8784 299.099Z" fill="#EFF1F3"/>
<path d="M1.19662 289.228L0.989029 288.773L0.201469 289.132L0.906358 289.635L1.19662 289.228ZM372.982 119.558L373.389 119.848L374.473 118.328L372.775 119.103L372.982 119.558ZM167.482 407.786L167.192 408.193L167.599 408.483L167.889 408.076L167.482 407.786ZM78.8784 299.099L78.6708 298.644L77.8833 299.004L78.5881 299.506L78.8784 299.099ZM261.963 215.546L262.37 215.836L263.454 214.316L261.755 215.091L261.963 215.546ZM160.765 357.482L160.475 357.889L160.882 358.18L161.172 357.773L160.765 357.482ZM1.4042 289.683L373.19 120.013L372.775 119.103L0.989029 288.773L1.4042 289.683ZM372.575 119.268L167.075 407.496L167.889 408.076L373.389 119.848L372.575 119.268ZM167.772 407.379L1.48689 288.821L0.906358 289.635L167.192 408.193L167.772 407.379ZM79.086 299.554L262.17 216.001L261.755 215.091L78.6708 298.644L79.086 299.554ZM261.556 215.255L160.358 357.192L161.172 357.773L262.37 215.836L261.556 215.255ZM161.055 357.075L79.1687 298.692L78.5881 299.506L160.475 357.889L161.055 357.075Z" fill="#4A6685"/>
<mask id="path-4-inside-1_220_92" fill="white">
<path d="M232.709 518.718C213.527 505.041 197.226 487.72 184.738 467.744C172.249 447.768 163.818 425.527 159.925 402.293C156.032 379.058 156.753 355.284 162.048 332.328C167.342 309.372 177.107 287.684 190.783 268.501C204.46 249.319 221.781 233.018 241.757 220.53C261.734 208.042 283.974 199.61 307.209 195.717C330.443 191.824 354.218 192.545 377.173 197.84C400.129 203.135 421.818 212.899 441 226.576L336.854 372.647L232.709 518.718Z"/>
<path d="M250.761 493.399C234.904 482.093 221.428 467.774 211.105 451.26C200.781 434.746 193.811 416.361 190.593 397.154C187.374 377.946 187.971 358.293 192.348 339.316C196.725 320.339 204.797 302.41 216.103 286.553C227.409 270.695 241.727 257.22 258.241 246.897C274.755 236.573 293.14 229.603 312.347 226.385C331.555 223.166 351.208 223.763 370.185 228.14C389.162 232.517 407.091 240.589 422.948 251.894L336.854 372.647L250.761 493.399Z"/>
</mask>
<path d="M232.709 518.718C213.527 505.041 197.226 487.72 184.738 467.744C172.249 447.768 163.818 425.527 159.925 402.293C156.032 379.058 156.753 355.284 162.048 332.328C167.342 309.372 177.107 287.684 190.783 268.501C204.46 249.319 221.781 233.018 241.757 220.53C261.734 208.042 283.974 199.61 307.209 195.717C330.443 191.824 354.218 192.545 377.173 197.84C400.129 203.135 421.818 212.899 441 226.576L336.854 372.647L232.709 518.718Z" fill="#6083A4"/>
<path d="M250.761 493.399C234.904 482.093 221.428 467.774 211.105 451.26C200.781 434.746 193.811 416.361 190.593 397.154C187.374 377.946 187.971 358.293 192.348 339.316C196.725 320.339 204.797 302.41 216.103 286.553C227.409 270.695 241.727 257.22 258.241 246.897C274.755 236.573 293.14 229.603 312.347 226.385C331.555 223.166 351.208 223.763 370.185 228.14C389.162 232.517 407.091 240.589 422.948 251.894L336.854 372.647L250.761 493.399Z" fill="#EFF1F3"/>
<path d="M232.709 518.718L232.128 519.532L232.943 520.113L233.523 519.298L232.709 518.718ZM441 226.576L441.814 227.156L442.395 226.342L441.581 225.762L441 226.576ZM336.854 372.647L337.669 373.227L336.854 372.647ZM250.761 493.399L250.18 494.213L250.995 494.793L251.575 493.979L250.761 493.399ZM422.948 251.894L423.762 252.475L424.343 251.661L423.529 251.08L422.948 251.894ZM233.289 517.904C214.214 504.303 198.004 487.079 185.586 467.214L183.89 468.274C196.448 488.362 212.839 505.779 232.128 519.532L233.289 517.904ZM185.586 467.214C173.167 447.349 164.782 425.233 160.911 402.127L158.938 402.458C162.853 425.822 171.332 448.186 183.89 468.274L185.586 467.214ZM160.911 402.127C157.039 379.022 157.757 355.381 163.022 332.553L161.073 332.103C155.749 355.187 155.024 379.094 158.938 402.458L160.911 402.127ZM163.022 332.553C168.287 309.725 177.997 288.157 191.598 269.082L189.969 267.921C176.216 287.21 166.398 309.019 161.073 332.103L163.022 332.553ZM191.598 269.082C205.198 250.006 222.422 233.797 242.287 221.378L241.227 219.682C221.14 232.24 203.722 248.631 189.969 267.921L191.598 269.082ZM242.287 221.378C262.152 208.959 284.269 200.575 307.374 196.703L307.043 194.731C283.679 198.646 261.315 207.124 241.227 219.682L242.287 221.378ZM307.374 196.703C330.479 192.832 354.121 193.549 376.949 198.814L377.398 196.866C354.314 191.541 330.408 190.816 307.043 194.731L307.374 196.703ZM376.949 198.814C399.777 204.08 421.344 213.79 440.419 227.39L441.581 225.762C422.291 212.009 400.482 202.19 377.398 196.866L376.949 198.814ZM440.186 225.995L336.04 372.066L337.669 373.227L441.814 227.156L440.186 225.995ZM336.04 372.066L231.895 518.137L233.523 519.298L337.669 373.227L336.04 372.066ZM251.341 492.584C235.591 481.355 222.207 467.132 211.953 450.73L210.257 451.79C220.65 468.415 234.216 482.831 250.18 494.213L251.341 492.584ZM211.953 450.73C201.698 434.328 194.775 416.066 191.579 396.988L189.606 397.319C192.846 416.656 199.863 435.165 210.257 451.79L211.953 450.73ZM191.579 396.988C188.382 377.911 188.975 358.39 193.322 339.541L191.373 339.091C186.967 358.196 186.366 377.982 189.606 397.319L191.579 396.988ZM193.322 339.541C197.67 320.692 205.687 302.884 216.917 287.133L215.288 285.972C203.906 301.937 195.78 319.987 191.373 339.091L193.322 339.541ZM216.917 287.133C228.147 271.383 242.369 257.999 258.771 247.745L257.711 246.049C241.086 256.442 226.671 270.008 215.288 285.972L216.917 287.133ZM258.771 247.745C275.173 237.49 293.435 230.567 312.513 227.371L312.182 225.398C292.845 228.638 274.336 235.655 257.711 246.049L258.771 247.745ZM312.513 227.371C331.59 224.174 351.111 224.767 369.96 229.114L370.41 227.165C351.305 222.759 331.519 222.158 312.182 225.398L312.513 227.371ZM369.96 229.114C388.809 233.461 406.617 241.479 422.368 252.709L423.529 251.08C407.564 239.698 389.515 231.572 370.41 227.165L369.96 229.114ZM422.134 251.314L336.04 372.066L337.669 373.227L423.762 252.475L422.134 251.314ZM336.04 372.066L249.947 492.818L251.575 493.979L337.669 373.227L336.04 372.066Z" fill="#4A6685" mask="url(#path-4-inside-1_220_92)"/>
</svg>
