<svg width="80" height="80" viewBox="0 0 80 80" fill="none" xmlns="http://www.w3.org/2000/svg">
<path fill-rule="evenodd" clip-rule="evenodd" d="M33.8799 7.7649C34.4726 7.46788 35.1591 7.41849 35.7883 7.62759C36.4175 7.83669 36.9378 8.28716 37.2349 8.8799L52.2349 38.8799C52.4091 39.2276 52.4998 39.611 52.4998 39.9999C52.4998 40.3888 52.4091 40.7723 52.2349 41.1199L37.2349 71.1199C37.0894 71.416 36.8867 71.6804 36.6385 71.8978C36.3903 72.1152 36.1015 72.2813 35.7888 72.3866C35.4761 72.4918 35.1457 72.5341 34.8166 72.5111C34.4875 72.4881 34.1661 72.4001 33.8712 72.2523C33.5762 72.1045 33.3134 71.8997 33.0979 71.6499C32.8825 71.4 32.7186 71.11 32.6158 70.7965C32.5129 70.483 32.4732 70.1522 32.4987 69.8233C32.5243 69.4943 32.6148 69.1737 32.7649 68.8799L47.1999 39.9999L32.7649 11.1199C32.4679 10.5271 32.4185 9.84067 32.6276 9.21149C32.8367 8.58231 33.2871 8.06196 33.8799 7.7649Z" fill="#B4B9BC"/>
</svg>
