<svg width="80" height="80" viewBox="0 0 80 80" fill="none" xmlns="http://www.w3.org/2000/svg">
<path fill-rule="evenodd" clip-rule="evenodd" d="M46.1198 7.76486C46.7112 8.06192 47.1607 8.5814 47.3698 9.20938C47.5788 9.83736 47.5302 10.5226 47.2348 11.1149L32.7998 39.9999L47.2398 68.8799C47.3899 69.1737 47.4803 69.4943 47.5059 69.8232C47.5315 70.1522 47.4918 70.4829 47.3889 70.7964C47.2861 71.1099 47.1222 71.4 46.9067 71.6498C46.6913 71.8997 46.4285 72.1044 46.1335 72.2522C45.8385 72.4 45.5172 72.488 45.1881 72.5111C44.859 72.5341 44.5285 72.4918 44.2158 72.3865C43.9032 72.2812 43.6144 72.1151 43.3662 71.8977C43.118 71.6803 42.9153 71.416 42.7698 71.1199L27.7698 41.1199C27.5956 40.7722 27.5049 40.3887 27.5049 39.9999C27.5049 39.611 27.5956 39.2275 27.7698 38.8799L42.7698 8.87986C43.0669 8.28842 43.5863 7.83891 44.2143 7.62989C44.8423 7.42088 45.5275 7.46941 46.1198 7.76486Z" fill="#B4B9BC"/>
</svg>
