<svg width="24" height="24" viewBox="0 0 24 24" fill="none" xmlns="http://www.w3.org/2000/svg">
<path d="M17.7663 1.5H6.23375C3.61925 1.5 1.5 3.61925 1.5 6.23375V17.7663C1.5 20.3808 3.61925 22.5 6.23375 22.5H17.7663C20.3808 22.5 22.5 20.3808 22.5 17.7663V6.23375C22.5 3.61925 20.3799 1.5 17.7663 1.5ZM17.4985 14.5069C16.0294 16.1974 12.7455 18.2571 11.9983 18.5721C11.251 18.8871 11.3612 18.3717 11.3919 18.1941C11.4103 18.0891 11.4916 17.5947 11.4916 17.5947C11.5152 17.4162 11.5398 17.1389 11.4689 16.9621C11.3901 16.767 11.0804 16.6664 10.852 16.6165C7.48762 16.172 4.9965 13.82 4.9965 11.0112C4.9965 7.87875 8.13775 5.329 11.9983 5.329C15.8588 5.329 19 7.87787 19 11.0112C18.9991 12.2642 18.5135 13.3939 17.4985 14.5069Z" fill="white"/>
<path d="M15.3337 10.26V10.7753H16.6707C16.7442 10.7753 16.8046 10.8357 16.8046 10.9092V11.4062C16.8046 11.4797 16.7451 11.5401 16.6707 11.5401H15.3337V12.0555H16.6707C16.7442 12.0555 16.8046 12.1158 16.8046 12.1893V12.6863C16.8046 12.7598 16.7451 12.8193 16.6707 12.8193H14.7037C14.6302 12.8193 14.5698 12.7598 14.5698 12.6863V9.62997C14.5698 9.55647 14.6293 9.49609 14.7037 9.49609H16.6707C16.7442 9.49609 16.8046 9.55559 16.8046 9.62997V10.1261C16.8046 10.1996 16.7451 10.26 16.6707 10.26H15.3337Z" fill="white"/>
<path d="M9.52733 12.1893V12.6863C9.52733 12.7598 9.46783 12.8193 9.39346 12.8193H7.42646C7.35296 12.8193 7.29346 12.7598 7.29346 12.6863V9.62997C7.29346 9.55647 7.35296 9.49609 7.42646 9.49609H7.92346C7.99696 9.49609 8.05733 9.55559 8.05733 9.62997V12.0555H9.39433C9.46783 12.0555 9.52733 12.1158 9.52733 12.1893Z" fill="white"/>
<path d="M10.7121 9.62997V12.6855C10.7121 12.759 10.6526 12.8185 10.5782 12.8185H10.0821C10.0086 12.8185 9.94824 12.759 9.94824 12.6855V9.62997C9.94824 9.55647 10.0077 9.49609 10.0821 9.49609H10.5782C10.6517 9.49609 10.7121 9.55647 10.7121 9.62997Z" fill="white"/>
<path d="M14.0921 9.62997V12.6855C14.0921 12.759 14.0326 12.8185 13.9582 12.8185H13.4647C13.421 12.8185 13.3781 12.7966 13.3527 12.7607L11.9527 10.8707V12.6855C11.9527 12.759 11.8932 12.8185 11.8189 12.8185H11.3219C11.2484 12.8185 11.188 12.759 11.188 12.6855V9.62997C11.188 9.55647 11.2475 9.49609 11.3219 9.49609H11.8154C11.8617 9.49609 11.902 9.52059 11.9291 9.55647L13.3274 11.4447V9.62997C13.3274 9.55647 13.3869 9.49609 13.4612 9.49609H13.9582C14.0326 9.49609 14.0921 9.55647 14.0921 9.62997Z" fill="white"/>
</svg>
