<svg width="44" height="46" viewBox="0 0 44 46" fill="none" xmlns="http://www.w3.org/2000/svg">
<path d="M10 18H6V32H10V18Z" fill="#343B3E"/>
<path d="M22 18H18V32H22V18Z" fill="#343B3E"/>
<path d="M40 10L20 0L0 10V14H40V10Z" fill="#343B3E"/>
<path d="M0 36V40H24.8C24.38 38.72 24.16 37.38 24.08 36H0Z" fill="#343B3E"/>
<path d="M34 22.52V18H30V24.52L34 22.52Z" fill="#343B3E"/>
<path d="M36 26L28 30V35.1C28 40.14 31.42 44.86 36 46C40.58 44.86 44 40.14 44 35.1V30L36 26ZM34.56 40L30.5 35.94L32.62 33.82L34.56 35.76L39.38 31L41.5 33.12L34.56 40Z" fill="#343B3E"/>
</svg>
